<?xml version="1.0" encoding="UTF-8"?>
<!-- ════════════════════════════════════════════════════════════════════
     Zooboxi · Icon Set (SVG sprite)
     أسلوب خطّي مستدير (stroke 1.7–1.8) — استخدم اللون عبر CSS: svg{color:#429D9C}
     الاستخدام:  <svg class="ico"><use href="zooboxi-icons.svg#i-box"/></svg>
     الأيقونات تستخدم currentColor (الافتراضي تركواز، والكورال للأكشن).
     ════════════════════════════════════════════════════════════════════ -->
<svg xmlns="http://www.w3.org/2000/svg" style="display:none">
  <symbol id="i-paw" viewBox="0 0 24 24"><g fill="currentColor"><ellipse cx="6" cy="9.5" rx="1.9" ry="2.5"/><ellipse cx="10.5" cy="6.6" rx="2" ry="2.7"/><ellipse cx="15.5" cy="7.4" rx="1.9" ry="2.5"/><ellipse cx="19" cy="11" rx="1.7" ry="2.2"/><path d="M12.2 12.4c-3 0-5.2 2.2-5.2 4.6 0 1.9 1.7 3 3.4 2.2.95-.45 2.7-.45 3.6 0 1.7.8 3.4-.3 3.4-2.2 0-2.4-2.2-4.6-5.2-4.6Z"/></g></symbol>
  <symbol id="i-box" viewBox="0 0 24 24" fill="none" stroke="currentColor" stroke-width="1.8" stroke-linecap="round" stroke-linejoin="round"><path d="M3.5 7.5 12 3.2l8.5 4.3M3.5 7.5 12 11.8l8.5-4.3M3.5 7.5v9L12 20.8l8.5-4.3v-9M12 11.8v9"/><path d="M9 13.4c.9.8 1.8 1.1 3 1.1s2.1-.3 3-1.1"/></symbol>
  <symbol id="i-bolt" viewBox="0 0 24 24" fill="none" stroke="currentColor" stroke-width="1.8" stroke-linecap="round" stroke-linejoin="round"><path d="M13 2.5 4.5 13.5H11l-1 8 8.5-11.5H12l1-7.5Z"/></symbol>
  <symbol id="i-truck" viewBox="0 0 24 24" fill="none" stroke="currentColor" stroke-width="1.8" stroke-linecap="round" stroke-linejoin="round"><path d="M2.5 6.5h11v9.5h-11zM13.5 9.5h3.6L21 12.6V16h-7.5"/><circle cx="6.5" cy="18" r="1.8"/><circle cx="17" cy="18" r="1.8"/></symbol>
  <symbol id="i-clock" viewBox="0 0 24 24" fill="none" stroke="currentColor" stroke-width="1.8" stroke-linecap="round" stroke-linejoin="round"><circle cx="12" cy="12" r="8.6"/><path d="M12 7.4V12l3.1 2"/></symbol>
  <symbol id="i-pin" viewBox="0 0 24 24" fill="none" stroke="currentColor" stroke-width="1.8" stroke-linecap="round" stroke-linejoin="round"><path d="M12 21.2s7-5.6 7-11.2a7 7 0 1 0-14 0c0 5.6 7 11.2 7 11.2Z"/><circle cx="12" cy="10" r="2.6"/></symbol>
  <symbol id="i-tag" viewBox="0 0 24 24" fill="none" stroke="currentColor" stroke-width="1.8" stroke-linecap="round" stroke-linejoin="round"><path d="M3.8 12.5 11 5.3a2 2 0 0 1 1.4-.6l5 .1a1.6 1.6 0 0 1 1.6 1.6l.1 5a2 2 0 0 1-.6 1.4l-7.2 7.2a1.6 1.6 0 0 1-2.3 0l-5-5a1.6 1.6 0 0 1 0-2.3Z"/><circle cx="15.5" cy="8.5" r="1.2" fill="currentColor"/></symbol>
  <symbol id="i-gift" viewBox="0 0 24 24" fill="none" stroke="currentColor" stroke-width="1.8" stroke-linecap="round" stroke-linejoin="round"><path d="M4 11h16v9H4zM3.4 7.5h17.2V11H3.4zM12 7.5v12.5M12 7.5C12 7.5 10.6 3.4 8.2 4.4 6.4 5.2 7.6 7.5 12 7.5ZM12 7.5C12 7.5 13.4 3.4 15.8 4.4 17.6 5.2 16.4 7.5 12 7.5Z"/></symbol>
  <symbol id="i-heart" viewBox="0 0 24 24" fill="none" stroke="currentColor" stroke-width="1.8" stroke-linecap="round" stroke-linejoin="round"><path d="M12 20.3S3.8 14.8 3.8 9.3A4.3 4.3 0 0 1 12 6.4 4.3 4.3 0 0 1 20.2 9.3C20.2 14.8 12 20.3 12 20.3Z"/></symbol>
  <symbol id="i-bowl" viewBox="0 0 24 24" fill="none" stroke="currentColor" stroke-width="1.8" stroke-linecap="round" stroke-linejoin="round"><path d="M3 11.5h18a9 9 0 0 1-18 0Z"/><path d="M5 11.5c0-2.2 3.1-3.4 7-3.4s7 1.2 7 3.4"/></symbol>
  <symbol id="i-shield" viewBox="0 0 24 24" fill="none" stroke="currentColor" stroke-width="1.8" stroke-linecap="round" stroke-linejoin="round"><path d="M12 3 5 5.8v5.1c0 4.4 3 7.5 7 9 4-1.5 7-4.6 7-9V5.8L12 3Z"/><path d="m9 11.8 2 2 4-4"/></symbol>
  <symbol id="i-return" viewBox="0 0 24 24" fill="none" stroke="currentColor" stroke-width="1.8" stroke-linecap="round" stroke-linejoin="round"><path d="M3.5 12a8.5 8.5 0 0 1 14.4-6.2L21 8.5M21 3.5v5h-5"/><path d="M20.5 12a8.5 8.5 0 0 1-14.4 6.2L3 15.5M3 20.5v-5h5"/></symbol>
  <symbol id="i-cat" viewBox="0 0 24 24" fill="none" stroke="currentColor" stroke-width="1.7" stroke-linecap="round" stroke-linejoin="round"><path d="M5.5 9 4.2 4.3l4.2 2.9a8 8 0 0 1 7.2 0l4.2-2.9L18.5 9"/><path d="M4.6 11.2a7.4 7 0 0 0 14.8 0"/><path d="M9.6 12.6h.01M14.4 12.6h.01"/><path d="M12 14.6v1.1M12 15.7c-.9 0-1.6.4-2.3.9M12 15.7c.9 0 1.6.4 2.3.9"/></symbol>
  <symbol id="i-dog" viewBox="0 0 24 24" fill="none" stroke="currentColor" stroke-width="1.7" stroke-linecap="round" stroke-linejoin="round"><path d="M6.5 7.4C4.7 7 3.4 8.6 3.4 11.2s1.3 4 2.6 3.8M17.5 7.4c1.8-.4 3.1 1.2 3.1 3.8s-1.3 4-2.6 3.8"/><path d="M6.4 8.2a5.6 5.6 0 0 1 11.2 0v4.4a5.6 5.6 0 0 1-11.2 0Z"/><path d="M10.6 12.4h.01M13.4 12.4h.01M12 14v1.4M12 15.4c-.7 0-1.3.4-1.8.8M12 15.4c.7 0 1.3.4 1.8.8"/></symbol>
  <symbol id="i-bird" viewBox="0 0 24 24" fill="none" stroke="currentColor" stroke-width="1.7" stroke-linecap="round" stroke-linejoin="round"><path d="M4 13.4c0-3 2.6-5.2 6.1-5.2 1.6 0 3 .5 4.1 1.5l6.3-2-2 4 1 1-3.9 1c-.8 2.5-3.2 4.1-6.2 4.1"/><path d="M9.4 18.8 8 21.5M13.4 18 13 21.5"/><path d="M8.6 11.2h.01"/></symbol>
  <symbol id="i-cart" viewBox="0 0 24 24" fill="none" stroke="currentColor" stroke-width="1.8" stroke-linecap="round" stroke-linejoin="round"><path d="M3 4h2.2l2 11.2a1.6 1.6 0 0 0 1.6 1.3h7.8a1.6 1.6 0 0 0 1.6-1.3L19.6 7H6.2"/><circle cx="9.5" cy="20" r="1.4"/><circle cx="17" cy="20" r="1.4"/></symbol>
</svg>
